<svg width="48" height="32" viewBox="0 0 48 32" fill="none" xmlns="http://www.w3.org/2000/svg">
<rect width="48" height="32" rx="16" fill="#171717"/>
<path d="M28.5938 16.564C28.3581 17.4593 27.2445 18.092 25.0172 19.3574C22.8641 20.5806 21.7875 21.1922 20.9199 20.9464C20.5612 20.8447 20.2344 20.6517 19.9709 20.3858C19.3334 19.7426 19.3334 18.4951 19.3334 16C19.3334 13.5049 19.3334 12.2574 19.9709 11.6142C20.2344 11.3483 20.5612 11.1553 20.9199 11.0536C21.7875 10.8078 22.8641 11.4194 25.0172 12.6426C27.2445 13.908 28.3581 14.5407 28.5938 15.436C28.691 15.8056 28.691 16.1944 28.5938 16.564Z" fill="white" stroke="white" stroke-width="1.5" stroke-linejoin="round"/>
</svg>
