<svg width="98" height="84" viewBox="0 0 98 84" fill="none" xmlns="http://www.w3.org/2000/svg">
<g clip-path="url(#clip0_1250_1801)">
<g clip-path="url(#clip1_1250_1801)">
<path d="M5.86589 34.4124C3.80364 34.3868 1.46243 33.1311 1.39525 31.0568C1.33912 29.1516 3.70691 27.6258 5.38469 28.4929C6.14246 28.8806 6.66543 29.6107 7.33561 30.1525C8.7614 31.2979 10.5108 31.1195 12.1567 31.0997C11.6197 33.294 7.99636 34.4358 5.86589 34.4124Z" fill="#F3B99E"/>
<path d="M6.35304 26.6919C4.77421 25.745 3.52702 23.696 4.40905 22.0497C5.21516 20.537 7.72638 20.4091 8.63159 21.8576C9.03872 22.5086 9.11734 23.3133 9.38926 24.0372C9.96903 25.5867 11.4038 26.2214 12.6799 26.97C11.2847 28.4348 7.98103 27.6938 6.35734 26.708L6.35304 26.6919Z" fill="#F3B99E"/>
<path d="M11.5494 21.7697C10.8801 20.4954 10.879 18.6349 12.1122 17.8795C13.2422 17.188 14.9532 18.1145 14.9749 19.4437C14.9816 20.0448 14.7229 20.618 14.615 21.2086C14.3887 22.479 15.0733 23.4905 15.6172 24.4903C14.1151 24.9172 12.2315 23.0921 11.5435 21.78L11.5494 21.7697Z" fill="#F3B99E"/>
</g>
<path d="M28.0852 4.89484C28.9681 9.0885 33.0481 12.0011 37.2839 12.8628C38.288 11.5875 39.2518 10.3868 40.152 9.27234C43.5741 5.05569 50.0202 5.05569 53.4423 9.27234C59.7729 17.0565 69.0756 29.3502 74.1828 40.1504C75.5505 39.1565 77.0047 38.7601 78.332 39.1565C81.5348 40.1159 82.7813 45.3551 81.1136 50.8586C80.3403 53.4093 79.0764 55.5635 77.628 57.0514C75.6716 72.252 62.6122 84.0001 46.7943 84.0001C30.9764 84.0001 18.367 72.6657 16.0702 57.85C14.264 56.3965 12.6424 53.9091 11.719 50.8701C10.0512 45.3666 11.2977 40.1274 14.5006 39.168C16.0068 38.7142 17.6803 39.2887 19.198 40.5985C21.1371 36.4278 23.7166 32.0216 26.5213 27.7302C22.147 25.1681 19.1692 20.1414 20.6754 14.7356C21.7892 16.482 23.9186 17.5218 25.9846 17.3437C24.3514 15.5571 23.6012 13.0122 23.9994 10.6224C24.3976 8.23254 25.95 6.06677 28.0794 4.90058L28.0852 4.89484Z" fill="#171717"/>
<path d="M60.0733 35.7214C56.6512 35.4227 53.4946 36.497 51.0708 38.4502C48.647 40.4034 45.4788 40.3057 43.1763 38.4502C40.7583 36.497 37.5958 35.4284 34.1737 35.7214C28.2817 36.227 23.4515 40.9032 22.8051 46.7514C21.9626 54.3057 27.8835 60.6996 35.2933 60.6996C38.2941 60.6996 41.0526 59.6483 43.2109 57.8962C45.375 56.144 48.7855 56.0693 51.0362 57.8962C53.2868 59.723 55.9472 60.6996 58.9538 60.6996C66.3636 60.6996 72.2787 54.3057 71.4419 46.7514C70.784 40.9089 65.9654 36.227 60.0733 35.7214Z" fill="#F5F5F5"/>
<path d="M47.1281 78.0886C55.1035 78.0886 61.5668 71.6545 61.5668 63.7153C61.5668 55.776 55.1035 49.3419 47.1281 49.3419C39.1528 49.3419 32.6895 55.776 32.6895 63.7153C32.6895 71.6545 39.1528 78.0886 47.1281 78.0886Z" fill="#F5F5F5"/>
<path d="M47.1668 57.0628H42.7408C41.7771 57.0628 40.998 56.2872 40.998 55.3279C40.998 54.3685 41.7771 53.593 42.7408 53.593C43.8372 53.593 44.8759 54.0985 45.551 54.9717L47.1784 57.0628H47.1668Z" fill="#171717"/>
<path d="M48.368 57.0628H52.794C53.7577 57.0628 54.5368 56.2873 54.5368 55.3279C54.5368 54.3686 53.7577 53.593 52.794 53.593C51.6976 53.593 50.6589 54.0986 49.9838 54.9718L48.3564 57.0628H48.368Z" fill="#171717"/>
<path d="M54.4865 62.7673C56.3332 62.8707 57.7182 64.5654 57.7182 66.5187C57.7182 68.8855 56.6044 70.8387 54.7693 72.183C52.9457 73.5215 50.4238 74.2511 47.573 74.2511C44.7222 74.2511 42.033 73.1596 40.2152 71.9992C39.3092 71.4189 38.5878 70.81 38.1435 70.2757C37.9242 70.0172 37.7453 69.7415 37.6587 69.4772C37.6125 69.3393 37.5837 69.1727 37.6183 68.9947C37.6587 68.7993 37.7626 68.6327 37.9357 68.5178L38.0338 68.4604C38.2589 68.3397 38.507 68.3283 38.7148 68.3512C38.9514 68.3742 39.2053 68.4546 39.4534 68.5466C39.944 68.7304 40.5672 69.0406 41.2309 69.3336C42.5928 69.9425 44.301 70.6032 46.263 70.6032C47.423 70.6032 48.1732 70.1838 48.733 69.5519C49.3216 68.8912 49.7256 67.9951 50.1295 67.007C50.5219 66.0591 50.9201 65.002 51.5203 64.1978C52.1493 63.3591 53.0149 62.7616 54.3076 62.7616H54.4865V62.7673Z" fill="#171717"/>
<path d="M61.2822 44.81C61.2822 48.1362 58.5758 50.8305 55.2346 50.8305C51.8934 50.8305 49.187 48.1362 49.187 44.81H61.2822Z" fill="#171717"/>
<path d="M43.1728 46.2196L36.1746 43.4329C35.4548 43.1428 34.6435 43.4954 34.3522 44.212C34.0665 44.9286 34.415 45.7362 35.1348 46.0263L38.8882 47.5163L35.1348 49.0064C34.415 49.2908 34.0665 50.104 34.3522 50.8206C34.5693 51.3666 35.0948 51.6965 35.6547 51.6965C35.8261 51.6965 36.0032 51.668 36.1746 51.5998L43.1728 48.813C43.7041 48.6026 44.0526 48.0908 44.0526 47.5163C44.0526 46.9419 43.7041 46.4358 43.1728 46.2196Z" fill="#171717"/>
<path d="M69.3817 31.3838C61.92 29.8442 54.3429 29.0802 46.7657 29.0802C39.2059 29.0802 31.6461 29.85 24.2017 31.3838C26.8332 27.2246 29.8052 23.1516 33.1176 19.2164C42.4607 18.1651 51.9018 18.1996 61.239 19.3084C64.2687 23.2378 66.9868 27.2763 69.3817 31.3838Z" fill="#FF921D"/>
<path d="M69.3793 31.3838C61.9175 29.8442 54.3404 29.0801 46.7633 29.0801C39.2034 29.0801 31.6436 29.8499 24.1992 31.3838C26.8307 27.2246 29.8027 23.1516 33.1152 19.2164C42.4582 18.1651 51.8993 18.1996 61.2366 19.3083C64.2663 23.2377 66.9844 27.2763 69.3793 31.3838Z" fill="#FF6A2D"/>
<path d="M74.1543 22.0851C69.6563 20.0003 65.8633 23.8321 64.8076 25.7067L66.927 29.9621C67.8138 28.6457 70.7708 24.9387 73.4696 26.1896C76.8432 27.7532 76.9292 30.8393 80.1963 36.1123C81.9911 39.009 87.7417 37.4363 90.5401 36.4452C91.0667 36.2587 91.4097 35.7601 91.4197 35.2025L91.5035 30.5322C91.5191 29.6621 90.7346 29.01 89.8911 29.2296C88.5174 29.5872 86.6755 30.1243 84.2838 30.7937C79.881 32.026 79.7769 24.6912 74.1543 22.0851Z" fill="#FF6A2D"/>
<path d="M65.166 16.0555C60.8397 18.5062 61.7694 23.8274 62.6899 25.779L67.4089 26.53C66.8471 25.041 65.533 20.4736 68.1288 19.0031C71.3735 17.1651 73.9509 18.8919 80.1715 19.3003C83.5902 19.5247 85.6508 13.9188 86.4678 11.0631C86.621 10.5276 86.4134 9.96071 85.9646 9.62938L82.1819 6.83688C81.4804 6.31902 80.4913 6.57848 80.1806 7.39171C79.6735 8.71931 79.0407 10.5335 78.1957 12.8735C76.6414 17.1779 70.574 12.9921 65.166 16.0555Z" fill="#FF6A2D"/>
</g>
<defs>
<clipPath id="clip0_1250_1801">
<rect width="98" height="84" fill="white"/>
</clipPath>
<clipPath id="clip1_1250_1801">
<rect width="11.3109" height="19.062" fill="white" transform="matrix(-0.870513 -0.492146 0.494103 -0.869403 8.93604 36.9502)"/>
</clipPath>
</defs>
</svg>
