<svg width="18" height="18" viewBox="0 0 18 18" fill="none" xmlns="http://www.w3.org/2000/svg">
<path d="M0.75 8.66667C0.75 4.93471 0.75 3.06874 1.90937 1.90937C3.06874 0.75 4.93471 0.75 8.66667 0.75C12.3986 0.75 14.2646 0.75 15.424 1.90937C16.5833 3.06874 16.5833 4.93471 16.5833 8.66667C16.5833 12.3986 16.5833 14.2646 15.424 15.424C14.2646 16.5833 12.3986 16.5833 8.66667 16.5833C4.93471 16.5833 3.06874 16.5833 1.90937 15.424C0.75 14.2646 0.75 12.3986 0.75 8.66667Z" stroke="white" stroke-width="1.5" stroke-linejoin="round"/>
<path d="M12.4166 8.66666C12.4166 10.7377 10.7377 12.4167 8.66663 12.4167C6.59556 12.4167 4.91663 10.7377 4.91663 8.66666C4.91663 6.59559 6.59556 4.91666 8.66663 4.91666C10.7377 4.91666 12.4166 6.59559 12.4166 8.66666Z" stroke="white" stroke-width="1.5"/>
<path d="M13.2565 4.08334L13.249 4.08334" stroke="white" stroke-width="2" stroke-linecap="round" stroke-linejoin="round"/>
</svg>
