<svg width="18" height="18" viewBox="0 0 18 18" fill="none" xmlns="http://www.w3.org/2000/svg">
<path d="M0.75 8.66667C0.75 4.93471 0.75 3.06874 1.90937 1.90937C3.06874 0.75 4.93471 0.75 8.66667 0.75C12.3986 0.75 14.2646 0.75 15.424 1.90937C16.5833 3.06874 16.5833 4.93471 16.5833 8.66667C16.5833 12.3986 16.5833 14.2646 15.424 15.424C14.2646 16.5833 12.3986 16.5833 8.66667 16.5833C4.93471 16.5833 3.06874 16.5833 1.90937 15.424C0.75 14.2646 0.75 12.3986 0.75 8.66667Z" fill="#171717" stroke="#171717" stroke-width="1.5" stroke-linejoin="round"/>
<path d="M7.31039 8.6053C7.72043 8.66395 8.10038 8.3791 8.15903 7.96906C8.21768 7.55902 7.93282 7.17907 7.52278 7.12042L7.41659 7.86286L7.31039 8.6053ZM13.2499 7.33332C13.6641 7.33332 13.9999 6.99754 13.9999 6.58332C13.9999 6.16911 13.6641 5.83332 13.2499 5.83332V6.58332L13.2499 7.33332ZM10.6666 3.66666C10.6666 3.25244 10.3308 2.91666 9.91659 2.91666C9.50237 2.91666 9.16659 3.25244 9.16659 3.66666H9.91659L10.6666 3.66666ZM9.91659 10.75L9.16659 10.75C9.16659 11.9466 8.19654 12.9167 6.99992 12.9167L6.99992 13.6667V14.4167C9.02496 14.4167 10.6666 12.775 10.6666 10.75H9.91659ZM6.99992 13.6667L6.99992 12.9167C5.8033 12.9167 4.83325 11.9466 4.83325 10.75H4.08325H3.33325C3.33325 12.775 4.97487 14.4167 6.99992 14.4167V13.6667ZM4.08325 10.75H4.83325C4.83325 9.55337 5.8033 8.58332 6.99992 8.58332L6.99992 7.83332V7.08332C4.97487 7.08332 3.33325 8.72495 3.33325 10.75H4.08325ZM6.99992 7.83332L6.99992 8.58332C7.10574 8.58332 7.20937 8.59085 7.31039 8.6053L7.41659 7.86286L7.52278 7.12042C7.35163 7.09594 7.17703 7.08332 6.99992 7.08332V7.83332ZM13.2499 6.58332V5.83332C12.6364 5.83332 11.97 5.57942 11.46 5.15341C10.9505 4.72793 10.6666 4.19392 10.6666 3.66666L9.91659 3.66666H9.16659C9.16659 4.75022 9.74392 5.67455 10.4984 6.3047C11.2523 6.93431 12.2526 7.33332 13.2499 7.33332L13.2499 6.58332ZM9.91659 3.66666H9.16659L9.16659 10.75L9.91659 10.75H10.6666L10.6666 3.66666L9.91659 3.66666Z" fill="white"/>
</svg>
