<svg width="19" height="16" viewBox="0 0 19 16" fill="none" xmlns="http://www.w3.org/2000/svg">
<path d="M9.08346 14.9167C10.5915 14.9167 12.0377 14.7677 13.378 14.4945C15.0521 14.1532 15.8891 13.9826 16.653 13.0005C17.4168 12.0184 17.4168 10.8911 17.4168 8.63629L17.4168 7.03038C17.4168 4.77561 17.4168 3.64822 16.653 2.66614C15.8891 1.68406 15.0521 1.51344 13.378 1.17219C12.0377 0.898978 10.5915 0.75 9.08346 0.75C7.57538 0.75 6.1292 0.898978 4.78892 1.17219C3.11484 1.51344 2.27779 1.68406 1.51396 2.66614C0.750122 3.64822 0.750122 4.77561 0.750122 7.03038L0.750122 8.63629C0.750122 10.8911 0.750122 12.0184 1.51396 13.0005C2.27779 13.9826 3.11484 14.1532 4.78892 14.4945C6.1292 14.7677 7.57538 14.9167 9.08346 14.9167Z" fill="#171717" stroke="#171717" stroke-width="1.5"/>
<path d="M12.3853 8.09405C12.2616 8.59892 11.6036 8.96152 10.2875 9.68672C8.8562 10.4754 8.14053 10.8698 7.56083 10.7179C7.36449 10.6664 7.18366 10.5759 7.03182 10.4532C6.5835 10.0907 6.5835 9.33826 6.5835 7.83332C6.5835 6.32839 6.5835 5.57592 7.03182 5.21347C7.18366 5.09071 7.36449 5.00023 7.56083 4.94877C8.14053 4.79683 8.8562 5.1912 10.2875 5.97993C11.6036 6.70513 12.2616 7.06772 12.3853 7.57259C12.4273 7.74437 12.4273 7.92228 12.3853 8.09405Z" fill="white" stroke="white" stroke-width="1.5" stroke-linejoin="round"/>
</svg>
